<?xml version="1.0" encoding="UTF-8"?>
<svg id="Layer_1" data-name="Layer 1" xmlns="http://www.w3.org/2000/svg" viewBox="0 0 522 522">
  <defs>
    <style>
      .cls-1 {
        fill: none;
      }

      .cls-1, .cls-2 {
        stroke: #c99d67;
        stroke-miterlimit: 10;
        stroke-width: 10px;
      }

      .cls-3 {
        fill: #ca9e68;
      }

      .cls-2 {
        fill: #231f20;
      }
    </style>
  </defs>
  <rect class="cls-2" x="5" y="5" width="512" height="512" rx="5" ry="5"/>
  <circle class="cls-1" cx="261" cy="261" r="225"/>
  <path class="cls-3" d="M354.96,75.9c4.45,1.8,6.1,5.04,6.04,9.88-.2,17.35-.06,34.7-.08,52.06,0,7.24-2.5,9.6-9.81,9.72-12.16,.19-24.33-.55-36.48,.49-13.22,1.13-19.48,7.68-19.65,21.01-.15,12.05,.02,24.1-.17,36.15-.05,2.95,.67,3.87,3.74,3.84,16.63-.15,33.26-.08,49.89-.07,7.76,0,10.26,2.45,10.26,10.09,0,18.68,0,37.36-.01,56.04,0,7.3-2.49,9.81-9.71,9.82-16.75,.01-33.5,.11-50.25-.08-3.32-.04-3.91,1-3.91,4.06,.09,48.68,.07,97.37,.07,146.05,0,8.76-2.39,11.15-11.11,11.15-18.92,0-37.84,0-56.76,0-7.75,0-10.21-2.43-10.21-10.12,0-48.93-.04-97.85,.08-146.78,0-3.47-.82-4.43-4.34-4.38-13.97,.22-27.95,.1-41.93,.08-7.03,0-9.56-2.52-9.57-9.57-.02-18.92-.02-37.84,0-56.76,0-6.93,2.69-9.6,9.6-9.61,14.22-.02,28.44-.09,42.66,.06,2.93,.03,3.58-.87,3.57-3.65-.1-14.7-.38-29.42,.14-44.1,.77-21.63,7-41.44,21.62-57.98,12.1-13.69,27.52-21.48,45.2-25.29,3.47-.75,7.17-.34,10.42-2.12h60.73Z"/>
</svg>