<?xml version="1.0" encoding="UTF-8"?>
<svg id="Layer_1" data-name="Layer 1" xmlns="http://www.w3.org/2000/svg" viewBox="0 0 522 522">
  <defs>
    <style>
      .cls-1 {
        fill: none;
      }

      .cls-1, .cls-2 {
        stroke: #c99d67;
        stroke-miterlimit: 10;
        stroke-width: 10px;
      }

      .cls-3 {
        fill: #c89c67;
      }

      .cls-2 {
        fill: #231f20;
      }
    </style>
  </defs>
  <rect class="cls-2" x="5" y="5" width="512" height="512" rx="5" ry="5"/>
  <circle class="cls-1" cx="261" cy="261" r="225"/>
  <g>
    <path class="cls-3" d="M86,326.14v-126.35h21.97l40.02,81.81,39.83-81.81h21.97v126.35h-21.19v-91.62l-34.14,69.84h-12.95l-34.33-69.84v91.62h-21.19Z"/>
    <path class="cls-3" d="M263.55,328.1c-5.89,0-11.35-1.05-16.38-3.14-5.04-2.09-9.06-5.26-12.07-9.51-3.01-4.25-4.51-9.52-4.51-15.79,0-8.89,3.04-16.05,9.12-21.48,6.08-5.43,15.47-8.14,28.15-8.14h29.82v-4.12c0-4.44-.69-7.98-2.06-10.59-1.37-2.61-3.86-4.51-7.46-5.69-3.6-1.18-8.86-1.77-15.79-1.77-10.99,0-21.26,1.64-30.8,4.9v-15.89c4.18-1.7,9.29-3.07,15.3-4.12,6.01-1.05,12.49-1.57,19.42-1.57,13.6,0,23.97,2.75,31.1,8.24,7.13,5.49,10.69,14.45,10.69,26.88v59.84h-18.25l-1.37-9.42c-3.79,3.66-8.47,6.47-14.03,8.44-5.56,1.96-12.53,2.94-20.89,2.94Zm5.69-15.3c6.41,0,12-1.08,16.77-3.24,4.77-2.16,8.66-5.07,11.67-8.73v-16.28h-29.43c-6.28,0-10.82,1.21-13.64,3.63-2.81,2.42-4.22,6.12-4.22,11.09s1.63,8.31,4.9,10.4c3.27,2.09,7.91,3.14,13.93,3.14Z"/>
    <path class="cls-3" d="M351.44,326.14v-76.71h-14.13l1.96-16.28h33.55v92.99h-21.39Zm-1.77-112.42v-17.66h23.35v17.66h-23.35Z"/>
    <path class="cls-3" d="M420.89,328.1c-7.59,0-13.34-1.86-17.26-5.59-3.92-3.73-5.89-9.91-5.89-18.54v-110.06h21.38v108.1c0,3.66,.65,6.15,1.96,7.46,1.31,1.31,3.27,1.96,5.89,1.96,3.14,0,6.15-.39,9.02-1.18v15.5c-2.49,.91-4.87,1.54-7.16,1.86-2.29,.32-4.94,.49-7.95,.49Z"/>
  </g>
</svg>